<?xml version="1.0" encoding="UTF-8" standalone="no"?>
<!-- Created with Inkscape (http://www.inkscape.org/) -->

<svg
   xmlns:dc="http://purl.org/dc/elements/1.1/"
   xmlns:cc="http://creativecommons.org/ns#"
   xmlns:rdf="http://www.w3.org/1999/02/22-rdf-syntax-ns#"
   xmlns:svg="http://www.w3.org/2000/svg"
   xmlns="http://www.w3.org/2000/svg"
   xmlns:sodipodi="http://sodipodi.sourceforge.net/DTD/sodipodi-0.dtd"
   xmlns:inkscape="http://www.inkscape.org/namespaces/inkscape"
   width="253.66486mm"
   height="273.5914mm"
   viewBox="0 0 253.66486 273.5914"
   version="1.1"
   id="svg8"
   inkscape:version="0.92.1 r15371"
   sodipodi:docname="kaktus-dobijecka.svg">
  <defs
     id="defs2">
    <clipPath
       clipPathUnits="userSpaceOnUse"
       id="clipPath16">
      <path
         d="M 0,38 H 38 V 0 H 0 Z"
         id="path18"
         inkscape:connector-curvature="0" />
    </clipPath>
  </defs>
  <sodipodi:namedview
     id="base"
     pagecolor="#ffffff"
     bordercolor="#666666"
     borderopacity="1.0"
     inkscape:pageopacity="0.0"
     inkscape:pageshadow="2"
     inkscape:zoom="0.98994949"
     inkscape:cx="271.30326"
     inkscape:cy="1039.8583"
     inkscape:document-units="mm"
     inkscape:current-layer="layer1"
     showgrid="false"
     inkscape:window-width="1920"
     inkscape:window-height="1028"
     inkscape:window-x="-8"
     inkscape:window-y="607"
     inkscape:window-maximized="1" />
  <metadata
     id="metadata5">
    <rdf:RDF>
      <cc:Work
         rdf:about="">
        <dc:format>image/svg+xml</dc:format>
        <dc:type
           rdf:resource="http://purl.org/dc/dcmitype/StillImage" />
        <dc:title></dc:title>
      </cc:Work>
    </rdf:RDF>
  </metadata>
  <g
     inkscape:label="Vrstva 1"
     inkscape:groupmode="layer"
     id="layer1"
     transform="translate(-2.8745426,-23.018314)">
    <g
       id="g10"
       transform="matrix(7.6172102,-1.544085,-1.544085,-7.6172102,17.134718,335.13085)">
      <g
         id="g12">
        <g
           id="g14"
           clip-path="url(#clipPath16)">
          <g
             id="g20"
             transform="translate(31,33)">
            <path
               d="m 0,0 c -2.209,0 -4,-1.791 -4,-4 v -9.125 c 0,-1.086 -0.887,-1.96 -2,-2.448 V -2 c 0,3.313 -2.687,6 -6,6 -3.313,0 -6,-2.687 -6,-6 v -17.629 c -1.122,0.475 -2,1.371 -2,2.504 V -12 c 0,2.209 -1.791,4 -4,4 -2.209,0 -4,-1.791 -4,-4 v -7 c 0,-2.209 1.75,-3.875 3.375,-4.812 1.244,-0.718 4.73,-1.6 6.625,-1.652 V -29 c 0,-3.313 12,-3.313 12,0 v 7.549 c 1.981,0.119 5.291,0.953 6.479,1.639 C 2.104,-18.875 4,-17.209 4,-15 V -4 C 4,-1.791 2.209,0 0,0"
               style="fill:#77b255;fill-opacity:1;fill-rule:nonzero;stroke:none"
               id="path22"
               inkscape:connector-curvature="0" />
          </g>
          <g
             id="g24"
             transform="translate(14,31)">
            <path
               d="m 0,0 c 0,-0.552 -0.448,-1 -1,-1 -0.552,0 -1,0.448 -1,1 0,0.552 0.448,1 1,1 0.552,0 1,-0.448 1,-1"
               style="fill:#3e721d;fill-opacity:1;fill-rule:nonzero;stroke:none"
               id="path26"
               inkscape:connector-curvature="0" />
          </g>
          <g
             id="g28"
             transform="translate(25,34)">
            <path
               d="m 0,0 c 0,-0.552 -0.447,-1 -1,-1 -0.553,0 -1,0.448 -1,1 0,0.552 0.447,1 1,1 0.553,0 1,-0.448 1,-1"
               style="fill:#3e721d;fill-opacity:1;fill-rule:nonzero;stroke:none"
               id="path30"
               inkscape:connector-curvature="0" />
          </g>
          <g
             id="g32"
             transform="translate(23,28)">
            <path
               d="m 0,0 c 0,-0.552 -0.447,-1 -1,-1 -0.553,0 -1,0.448 -1,1 0,0.552 0.447,1 1,1 0.553,0 1,-0.448 1,-1"
               style="fill:#3e721d;fill-opacity:1;fill-rule:nonzero;stroke:none"
               id="path34"
               inkscape:connector-curvature="0" />
          </g>
          <g
             id="g36"
             transform="translate(16,21)">
            <path
               d="m 0,0 c 0,-0.552 -0.447,-1 -1,-1 -0.553,0 -1,0.448 -1,1 0,0.552 0.447,1 1,1 0.553,0 1,-0.448 1,-1"
               style="fill:#3e721d;fill-opacity:1;fill-rule:nonzero;stroke:none"
               id="path38"
               inkscape:connector-curvature="0" />
          </g>
          <g
             id="g40"
             transform="translate(22,17)">
            <path
               d="m 0,0 c 0,-0.553 -0.447,-1 -1,-1 -0.553,0 -1,0.447 -1,1 0,0.553 0.447,1 1,1 0.553,0 1,-0.447 1,-1"
               style="fill:#3e721d;fill-opacity:1;fill-rule:nonzero;stroke:none"
               id="path42"
               inkscape:connector-curvature="0" />
          </g>
          <g
             id="g44"
             transform="translate(15,11)">
            <path
               d="m 0,0 c 0,-0.553 -0.447,-1 -1,-1 -0.553,0 -1,0.447 -1,1 0,0.553 0.447,1 1,1 0.553,0 1,-0.447 1,-1"
               style="fill:#3e721d;fill-opacity:1;fill-rule:nonzero;stroke:none"
               id="path46"
               inkscape:connector-curvature="0" />
          </g>
          <g
             id="g48"
             transform="translate(7,10)">
            <path
               d="m 0,0 c 0,-0.553 -0.447,-1 -1,-1 -0.553,0 -1,0.447 -1,1 0,0.553 0.447,1 1,1 0.553,0 1,-0.447 1,-1"
               style="fill:#3e721d;fill-opacity:1;fill-rule:nonzero;stroke:none"
               id="path50"
               inkscape:connector-curvature="0" />
          </g>
          <g
             id="g52"
             transform="translate(11,17)">
            <path
               d="m 0,0 c 0,-0.553 -0.447,-1 -1,-1 -0.553,0 -1,0.447 -1,1 0,0.553 0.447,1 1,1 0.553,0 1,-0.447 1,-1"
               style="fill:#3e721d;fill-opacity:1;fill-rule:nonzero;stroke:none"
               id="path54"
               inkscape:connector-curvature="0" />
          </g>
          <g
             id="g56"
             transform="translate(4,19)">
            <path
               d="m 0,0 c 0,-0.553 -0.447,-1 -1,-1 -0.553,0 -1,0.447 -1,1 0,0.553 0.447,1 1,1 0.553,0 1,-0.447 1,-1"
               style="fill:#3e721d;fill-opacity:1;fill-rule:nonzero;stroke:none"
               id="path58"
               inkscape:connector-curvature="0" />
          </g>
          <g
             id="g60"
             transform="translate(36,29)">
            <path
               d="m 0,0 c 0,-0.553 -0.447,-1 -1,-1 -0.553,0 -1,0.447 -1,1 0,0.553 0.447,1 1,1 0.553,0 1,-0.447 1,-1"
               style="fill:#3e721d;fill-opacity:1;fill-rule:nonzero;stroke:none"
               id="path62"
               inkscape:connector-curvature="0" />
          </g>
          <g
             id="g64"
             transform="translate(30,26)">
            <path
               d="m 0,0 c 0,-0.553 -0.447,-1 -1,-1 -0.553,0 -1,0.447 -1,1 0,0.553 0.447,1 1,1 0.553,0 1,-0.447 1,-1"
               style="fill:#3e721d;fill-opacity:1;fill-rule:nonzero;stroke:none"
               id="path66"
               inkscape:connector-curvature="0" />
          </g>
          <g
             id="g68"
             transform="translate(34,21)">
            <path
               d="m 0,0 c 0,-0.553 -0.447,-1 -1,-1 -0.553,0 -1,0.447 -1,1 0,0.553 0.447,1 1,1 0.553,0 1,-0.447 1,-1"
               style="fill:#3e721d;fill-opacity:1;fill-rule:nonzero;stroke:none"
               id="path70"
               inkscape:connector-curvature="0" />
          </g>
          <g
             id="g72"
             transform="translate(31,13)">
            <path
               d="m 0,0 c 0,-0.553 -0.447,-1 -1,-1 -0.553,0 -1,0.447 -1,1 0,0.553 0.447,1 1,1 0.553,0 1,-0.447 1,-1"
               style="fill:#3e721d;fill-opacity:1;fill-rule:nonzero;stroke:none"
               id="path74"
               inkscape:connector-curvature="0" />
          </g>
          <g
             id="g76"
             transform="translate(24,7)">
            <path
               d="m 0,0 c 0,-0.553 -0.447,-1 -1,-1 -0.553,0 -1,0.447 -1,1 0,0.553 0.447,1 1,1 0.553,0 1,-0.447 1,-1"
               style="fill:#3e721d;fill-opacity:1;fill-rule:nonzero;stroke:none"
               id="path78"
               inkscape:connector-curvature="0" />
          </g>
        </g>
      </g>
    </g>
    <g
       id="g196"
       transform="matrix(0.03457457,-0.00700861,-0.00700861,-0.03457457,51.072666,117.72386)"
       style="stroke:none">
      <path
         id="path186"
         d="M 0,640 V 480 h 80 80 v -80 -80 h 80 80 v -80 -80 h 80 80 V 80 0 h 560 560 v 80 80 h 80 80 v 80 80 h 80 80 v 160 160 h 160 160 V 480 320 h 80 80 v -80 -80 h 80 80 V 80 0 h 480 480 v 80 80 h 80 80 v 80 80 h 80 80 v 80 80 h 80 80 V 640 800 H 2000 0 Z m 480,-80 v -80 h 80 80 v 80 80 h 80 80 v -80 -80 h 80 80 v -80 -80 h 80 80 v -80 -80 h -80 -80 v 80 80 h -80 -80 v -80 -80 h -80 -80 v 80 80 h -80 -80 v 80 80 h -80 -80 v 80 80 h 80 80 z m 2080,0 v -80 h 80 80 v 80 80 h 80 80 v -80 -80 h 80 80 v -80 -80 h 80 80 v -80 -80 h -80 -80 v 80 80 h -80 -80 v -80 -80 h -80 -80 v 80 80 h -80 -80 v 80 80 h -80 -80 v 80 80 h 80 80 z"
         inkscape:connector-curvature="0"
         style="fill:#000000" />
      <path
         id="path188"
         d="m 320,560 v -80 h 80 80 v -80 -80 h 80 80 v -80 -80 h 80 80 v 80 80 h 80 80 v -80 -80 h 80 80 v 80 80 h -80 -80 v 80 80 h -80 -80 v 80 80 h -80 -80 v -80 -80 h -80 -80 v 80 80 h -80 -80 z"
         inkscape:connector-curvature="0"
         style="fill:#ffffff" />
      <path
         id="path190"
         d="m 2400,560 v -80 h 80 80 v -80 -80 h 80 80 v -80 -80 h 80 80 v 80 80 h 80 80 v -80 -80 h 80 80 v 80 80 h -80 -80 v 80 80 h -80 -80 v 80 80 h -80 -80 v -80 -80 h -80 -80 v 80 80 h -80 -80 z"
         inkscape:connector-curvature="0"
         style="fill:#ffffff" />
      <path
         id="path192"
         d="m 640,400 v -80 h 80 80 v 80 80 h -80 -80 z"
         inkscape:connector-curvature="0"
         style="fill:#000000" />
      <path
         id="path194"
         d="m 2720,400 v -80 h 80 80 v 80 80 h -80 -80 z"
         inkscape:connector-curvature="0"
         style="fill:#000000" />
    </g>
  </g>
</svg>
