<?xml version="1.0" encoding="UTF-8" standalone="no"?>
<!-- Created with Inkscape (http://www.inkscape.org/) -->

<svg
   width="253.66486mm"
   height="273.5914mm"
   viewBox="0 0 253.66486 273.5914"
   version="1.1"
   id="svg8"
   inkscape:version="1.3.2 (091e20e, 2023-11-25, custom)"
   sodipodi:docname="kaktus-dobijecka-monochrome.svg"
   xmlns:inkscape="http://www.inkscape.org/namespaces/inkscape"
   xmlns:sodipodi="http://sodipodi.sourceforge.net/DTD/sodipodi-0.dtd"
   xmlns="http://www.w3.org/2000/svg"
   xmlns:svg="http://www.w3.org/2000/svg"
   xmlns:rdf="http://www.w3.org/1999/02/22-rdf-syntax-ns#"
   xmlns:cc="http://creativecommons.org/ns#"
   xmlns:dc="http://purl.org/dc/elements/1.1/">
  <defs
     id="defs2">
    <clipPath
       clipPathUnits="userSpaceOnUse"
       id="clipPath16">
      <path
         d="M 0,38 H 38 V 0 H 0 Z"
         id="path18"
         inkscape:connector-curvature="0" />
    </clipPath>
  </defs>
  <sodipodi:namedview
     id="base"
     pagecolor="#ffffff"
     bordercolor="#666666"
     borderopacity="1.0"
     inkscape:pageopacity="0.0"
     inkscape:pageshadow="2"
     inkscape:zoom="0.98994949"
     inkscape:cx="271.22596"
     inkscape:cy="635.89103"
     inkscape:document-units="mm"
     inkscape:current-layer="layer1"
     showgrid="false"
     inkscape:window-width="3840"
     inkscape:window-height="2071"
     inkscape:window-x="-9"
     inkscape:window-y="-9"
     inkscape:window-maximized="1"
     inkscape:showpageshadow="2"
     inkscape:pagecheckerboard="true"
     inkscape:deskcolor="#d1d1d1" />
  <metadata
     id="metadata5">
    <rdf:RDF>
      <cc:Work
         rdf:about="">
        <dc:format>image/svg+xml</dc:format>
        <dc:type
           rdf:resource="http://purl.org/dc/dcmitype/StillImage" />
      </cc:Work>
    </rdf:RDF>
  </metadata>
  <g
     inkscape:label="Vrstva 1"
     inkscape:groupmode="layer"
     id="layer1"
     transform="translate(-2.8745426,-23.018314)">
    <g
       id="g10"
       transform="matrix(7.6172102,-1.544085,-1.544085,-7.6172102,17.134718,335.13085)">
      <g
         id="g12">
        <g
           id="g14"
           clip-path="url(#clipPath16)">
          <g
             id="g20"
             transform="translate(31,33)">
            <path
               id="path22"
               style="fill:#000000;fill-opacity:1;fill-rule:nonzero;stroke:none"
               d="M -10.790975 3.8780796 C -11.181512 3.9580215 -11.585898 4.0000331 -12.000023 4.0000331 C -14.972967 4.0000331 -17.435184 1.8339756 -17.91063 -1.0041851 C -17.40048 -1.0494701 -17.000029 -1.478175 -17.000029 -2.0000239 C -17.000029 -2.5520164 -17.448027 -3.0000145 -18.000012 -3.0000145 L -18.000017 -3.5475637 L -17.89506 -3.5475372 L -17.531905 -3.5475441 L -17.531899 -3.9106341 L -17.531906 -4.2737892 L -17.168816 -4.2737829 L -16.805661 -4.2737899 L -16.805655 -4.6368798 L -16.805662 -5.0000349 L -16.442572 -5.0000287 L -16.079417 -5.0000356 L -16.079411 -5.3631255 L -16.079404 -5.7262155 L -16.442559 -5.7262085 L -16.805649 -5.7262148 L -16.805656 -5.3631248 L -16.805662 -5.0000349 L -17.168817 -5.0000279 L -17.531907 -5.0000342 L -17.531901 -5.3631241 L -17.531894 -5.726214 L -17.895049 -5.7262071 L -18.000006 -5.7262336 L -18.00003 -19.629024 C -19.122015 -19.154024 -20.000002 -18.25798 -20.000002 -17.124995 L -19.999996 -16.001131 C -20.000617 -16.55359 -20.447414 -17.000026 -21.000029 -17.000026 C -21.55302 -17.000026 -22.000006 -16.552977 -22.000006 -15.999977 C -22.000006 -15.446986 -21.553014 -14.999987 -21.000023 -14.999987 C -20.447413 -14.999987 -20.000632 -15.446362 -20.000003 -15.998823 L -19.999981 -12.000035 C -19.999981 -9.7910725 -21.791025 -8.0000228 -23.999995 -8.0000228 C -26.208965 -8.0000228 -27.999995 -9.7910035 -27.999995 -11.999972 L -28.000004 -13.000024 C -27.447012 -13.000024 -27.000014 -13.447008 -27.000014 -14.000008 C -27.000014 -14.553 -27.447005 -14.999998 -27.999997 -14.999998 L -27.999996 -19.000012 C -27.999996 -20.58428 -27.09584 -21.883213 -25.987244 -22.840263 C -25.910936 -22.36343 -25.498624 -21.999962 -25.000025 -21.999962 C -24.447025 -21.999962 -23.999982 -22.447034 -23.999982 -23.000024 C -23.999982 -23.373299 -24.203837 -23.698025 -24.506283 -23.869834 C -23.182764 -24.576675 -19.845142 -25.413388 -18.000023 -25.46402 L -17.999987 -29.000004 C -17.999987 -32.312944 -6.0000119 -32.312943 -6.0000119 -28.999988 L -5.9999886 -21.450978 C -4.8139587 -21.379731 -3.1566085 -21.050545 -1.7584204 -20.651921 C -1.9089119 -20.476941 -2.0000038 -20.249314 -2.0000038 -19.999973 C -2.0000038 -19.446977 -1.5530182 -18.999983 -1.0000202 -18.999983 C -0.44702252 -18.999983 3.5506474e-05 -19.446983 3.5506474e-05 -19.999979 C 3.5506474e-05 -20.015451 -0.00048771859 -20.030838 -0.0011800412 -20.046137 C 0.17929165 -19.967153 0.34649758 -19.888494 0.47897707 -19.811995 C 2.103953 -18.87501 3.9999793 -17.208935 3.9999793 -14.999965 L 4.0000357 -4.9999773 C 3.4470399 -4.9999773 2.99998 -4.552977 2.99998 -3.9999805 C 2.99998 -3.4907056 3.3792204 -3.0716643 3.8710962 -3.0085344 C 3.4293381 -1.2800037 1.8661052 2.227723e-05 1.7992906e-05 2.227723e-05 C -2.208949 2.227723e-05 -3.9999945 -1.7910264 -3.9999945 -3.9999919 L -4.0000148 -13.124965 C -4.0000148 -14.21095 -4.8869786 -15.084991 -5.9999621 -15.572976 L -5.9999756 -2.0000249 C -5.9999756 -1.2272102 -6.1500426 -0.49039117 -6.4163059 0.18813989 C -6.5805005 0.069896128 -6.781946 2.4073119e-05 -7.0000217 2.4073119e-05 C -7.5530133 2.4073119e-05 -8.0000122 0.44801544 -8.0000122 1.0000076 C -8.0000122 1.393217 -7.7730905 1.7335403 -7.4427076 1.8968597 C -8.2934724 2.890765 -9.4608608 3.6058031 -10.790975 3.8780796 z M -8.0907853 -3.5475403 L -8.0907791 -3.9106302 L -8.090786 -4.2737853 L -7.7276961 -4.273779 L -7.364541 -4.273786 L -7.3645348 -4.6368759 L -7.3645417 -5.000031 L -7.0014518 -5.0000248 L -6.6382967 -5.0000317 L -6.6382905 -5.3631217 L -6.6382974 -5.7262767 L -7.0014525 -5.7262698 L -7.3645424 -5.726276 L -7.3645355 -5.3631209 L -7.3645417 -5.000031 L -7.7276968 -5.000024 L -8.0907867 -5.0000303 L -8.0907805 -5.3631202 L -8.0907875 -5.7262753 L -8.4538774 -5.7262816 L -8.8170325 -5.7262746 L -8.8170255 -5.3631195 L -8.8170318 -5.0000296 L -9.1801217 -5.0000358 L -9.5432768 -5.0000289 L -9.5432698 -4.6368738 L -9.5432761 -4.2737838 L -9.906366 -4.2737901 L -10.269521 -4.2737831 L -10.269514 -3.910628 L -10.26952 -3.5475381 L -9.9063653 -3.5475451 L -9.5432753 -3.5475388 L -9.5432691 -3.9106287 L -9.5432761 -4.2737838 L -9.180121 -4.2737908 L -8.817031 -4.2737846 L -8.8170241 -3.9106295 L -8.8170303 -3.5475395 L -8.4538752 -3.5475465 L -8.0907853 -3.5475403 z M -1.7982382 -6.0203048 C -1.3422152 -6.1134234 -0.99997085 -6.5161489 -0.99997085 -7.0000209 C -0.99997085 -7.5530179 -1.4470231 -7.9999983 -2.0000195 -7.9999983 C -2.5530165 -7.9999983 -3.0000101 -7.5530117 -3.0000101 -7.0000147 C -3.0000101 -6.4470183 -2.553023 -6.0000242 -2.0000266 -6.0000242 C -1.9309022 -6.0000242 -1.8633841 -6.0070021 -1.7982382 -6.0203048 z M 2.2017144 -11.020291 C 2.6577373 -11.11341 2.9999817 -11.516137 2.9999817 -12.000007 C 2.9999817 -12.553007 2.5529952 -12.999998 1.9999982 -12.999998 C 1.4470007 -12.999998 1.0000076 -12.553014 1.0000076 -12.000014 C 1.0000076 -11.447019 1.4469937 -11.000024 1.9999912 -11.000024 C 2.0691157 -11.000024 2.1365684 -11.006988 2.2017144 -11.020291 z M -15.798248 -11.020315 C -15.342223 -11.113612 -14.999981 -11.517031 -14.999981 -12.000031 C -14.999981 -12.552018 -15.447042 -13.000008 -16.000029 -13.000008 C -16.553029 -13.000008 -17.00002 -12.552012 -17.00002 -12.000025 C -17.00002 -11.448025 -16.553023 -10.999969 -16.000023 -10.999969 C -15.930898 -10.999969 -15.863394 -11.006987 -15.798248 -11.020315 z M -9.7982597 -15.02032 C -9.3422391 -15.113439 -8.9999791 -15.516108 -8.9999791 -15.999971 C -8.9999791 -16.552971 -9.4469819 -17.000027 -9.9999759 -17.000027 C -10.552964 -17.000027 -11.000018 -16.552965 -11.000018 -15.999965 C -11.000018 -15.446977 -10.552958 -14.999988 -9.9999697 -14.999988 C -9.9308459 -14.999988 -9.863405 -15.007018 -9.7982597 -15.02032 z M -16.798291 -21.020306 C -16.342277 -21.113425 -16.000024 -21.516158 -16.000024 -22.000022 C -16.000024 -22.553022 -16.447008 -23.000013 -17.000008 -23.000013 C -17.552997 -23.000013 -17.999998 -22.553029 -17.999998 -22.000029 C -17.999998 -21.44704 -17.553001 -20.999973 -17.000001 -20.999973 C -16.930887 -20.999973 -16.863438 -21.007003 -16.798291 -21.020306 z M -7.7982768 -25.020314 C -7.3422529 -25.113433 -7.0000095 -25.516158 -7.0000095 -26.00003 C -7.0000095 -26.55303 -7.4469948 -27.000021 -7.999993 -27.000021 C -8.5529915 -27.000021 -8.9999836 -26.553037 -8.9999836 -26.000037 C -8.9999836 -25.44704 -8.5529853 -24.999981 -7.9999868 -24.999981 C -7.9308621 -24.999981 -7.863423 -25.007011 -7.7982768 -25.020314 z " />
          </g>
          <g
             id="g24"
             transform="translate(14,31)"
             style="stroke:#000000;stroke-opacity:1;stroke-width:0.18156028;stroke-dasharray:none">
            <path
               d="m 0,0 c 0,-0.552 -0.448,-1 -1,-1 -0.552,0 -1,0.448 -1,1 0,0.552 0.448,1 1,1 0.552,0 1,-0.448 1,-1"
               style="fill:#ffffff;fill-opacity:0;fill-rule:nonzero;stroke:#000000;stroke-opacity:1;stroke-width:0.18156028;stroke-dasharray:none"
               id="path13"
               inkscape:connector-curvature="0" />
          </g>
          <g
             id="g28"
             transform="translate(25,34)"
             style="stroke:#000000;stroke-opacity:1;stroke-width:0.18156028;stroke-dasharray:none">
            <path
               d="m 0,0 c 0,-0.552 -0.447,-1 -1,-1 -0.553,0 -1,0.448 -1,1 0,0.552 0.447,1 1,1 0.553,0 1,-0.448 1,-1"
               style="fill:#ffffff;fill-opacity:0;fill-rule:nonzero;stroke:#000000;stroke-opacity:1;stroke-width:0.18156028;stroke-dasharray:none"
               id="path12"
               inkscape:connector-curvature="0" />
          </g>
          <g
             id="g36"
             transform="translate(16,21)"
             style="stroke:#000000;stroke-opacity:1;stroke-width:0.18156028;stroke-dasharray:none">
            <path
               d="m 0,0 c 0,-0.552 -0.447,-1 -1,-1 -0.553,0 -1,0.448 -1,1 0,0.552 0.447,1 1,1 0.553,0 1,-0.448 1,-1"
               style="fill:#ffffff;fill-opacity:0;fill-rule:nonzero;stroke:#000000;stroke-opacity:1;stroke-width:0.18156028;stroke-dasharray:none"
               id="path11"
               inkscape:connector-curvature="0" />
          </g>
          <g
             id="g40"
             transform="translate(22,17)"
             style="stroke:#000000;stroke-opacity:1;stroke-width:0.18156028;stroke-dasharray:none">
            <path
               d="m 0,0 c 0,-0.553 -0.447,-1 -1,-1 -0.553,0 -1,0.447 -1,1 0,0.553 0.447,1 1,1 0.553,0 1,-0.447 1,-1"
               style="fill:#ffffff;fill-opacity:0;fill-rule:nonzero;stroke:#000000;stroke-opacity:1;stroke-width:0.18156028;stroke-dasharray:none"
               id="path10"
               inkscape:connector-curvature="0" />
          </g>
          <g
             id="g44"
             transform="translate(15,11)"
             style="stroke:#000000;stroke-opacity:1;stroke-width:0.18156028;stroke-dasharray:none">
            <path
               d="m 0,0 c 0,-0.553 -0.447,-1 -1,-1 -0.553,0 -1,0.447 -1,1 0,0.553 0.447,1 1,1 0.553,0 1,-0.447 1,-1"
               style="fill:#ffffff;fill-opacity:0;fill-rule:nonzero;stroke:#000000;stroke-opacity:1;stroke-width:0.18156028;stroke-dasharray:none"
               id="path9"
               inkscape:connector-curvature="0" />
          </g>
          <g
             id="g48"
             transform="translate(7,10)"
             style="stroke:#000000;stroke-opacity:1;stroke-width:0.18156028;stroke-dasharray:none">
            <path
               d="m 0,0 c 0,-0.553 -0.447,-1 -1,-1 -0.553,0 -1,0.447 -1,1 0,0.553 0.447,1 1,1 0.553,0 1,-0.447 1,-1"
               style="fill:#ffffff;fill-opacity:0;fill-rule:nonzero;stroke:#000000;stroke-opacity:1;stroke-width:0.18156028;stroke-dasharray:none"
               id="path8"
               inkscape:connector-curvature="0" />
          </g>
          <g
             id="g52"
             transform="translate(11,17)"
             style="stroke:#000000;stroke-opacity:1;stroke-width:0.18156028;stroke-dasharray:none">
            <path
               d="m 0,0 c 0,-0.553 -0.447,-1 -1,-1 -0.553,0 -1,0.447 -1,1 0,0.553 0.447,1 1,1 0.553,0 1,-0.447 1,-1"
               style="fill:#ffffff;fill-opacity:0;fill-rule:nonzero;stroke:#000000;stroke-opacity:1;stroke-width:0.18156028;stroke-dasharray:none"
               id="path7"
               inkscape:connector-curvature="0" />
          </g>
          <g
             id="g56"
             transform="translate(4,19)"
             style="stroke:#000000;stroke-opacity:1;stroke-width:0.18156028;stroke-dasharray:none">
            <path
               d="m 0,0 c 0,-0.553 -0.447,-1 -1,-1 -0.553,0 -1,0.447 -1,1 0,0.553 0.447,1 1,1 0.553,0 1,-0.447 1,-1"
               style="fill:#ffffff;fill-opacity:0;fill-rule:nonzero;stroke:#000000;stroke-opacity:1;stroke-width:0.18156028;stroke-dasharray:none"
               id="path6"
               inkscape:connector-curvature="0" />
          </g>
          <g
             id="g60"
             transform="translate(36,29)"
             style="stroke:#000000;stroke-opacity:1;stroke-width:0.18156028;stroke-dasharray:none">
            <path
               d="m 0,0 c 0,-0.553 -0.447,-1 -1,-1 -0.553,0 -1,0.447 -1,1 0,0.553 0.447,1 1,1 0.553,0 1,-0.447 1,-1"
               style="fill:#ffffff;fill-opacity:0;fill-rule:nonzero;stroke:#000000;stroke-opacity:1;stroke-width:0.18156028;stroke-dasharray:none"
               id="path5"
               inkscape:connector-curvature="0" />
          </g>
          <g
             id="g64"
             transform="translate(30,26)"
             style="stroke:#000000;stroke-opacity:1;stroke-width:0.18156028;stroke-dasharray:none">
            <path
               d="m 0,0 c 0,-0.553 -0.447,-1 -1,-1 -0.553,0 -1,0.447 -1,1 0,0.553 0.447,1 1,1 0.553,0 1,-0.447 1,-1"
               style="fill:#ffffff;fill-opacity:0;fill-rule:nonzero;stroke:#000000;stroke-opacity:1;stroke-width:0.18156028;stroke-dasharray:none"
               id="path4"
               inkscape:connector-curvature="0" />
          </g>
          <g
             id="g68"
             transform="translate(34,21)"
             style="stroke:#000000;stroke-opacity:1;stroke-width:0.18156028;stroke-dasharray:none">
            <path
               d="m 0,0 c 0,-0.553 -0.447,-1 -1,-1 -0.553,0 -1,0.447 -1,1 0,0.553 0.447,1 1,1 0.553,0 1,-0.447 1,-1"
               style="fill:#ffffff;fill-opacity:0;fill-rule:nonzero;stroke:#000000;stroke-opacity:1;stroke-width:0.18156028;stroke-dasharray:none"
               id="path3"
               inkscape:connector-curvature="0" />
          </g>
          <g
             id="g72"
             transform="translate(31,13)"
             style="stroke:#000000;stroke-opacity:1;stroke-width:0.18156028;stroke-dasharray:none">
            <path
               d="m 0,0 c 0,-0.553 -0.447,-1 -1,-1 -0.553,0 -1,0.447 -1,1 0,0.553 0.447,1 1,1 0.553,0 1,-0.447 1,-1"
               style="fill:#ffffff;fill-opacity:0;fill-rule:nonzero;stroke:#000000;stroke-opacity:1;stroke-width:0.18156028;stroke-dasharray:none"
               id="path2"
               inkscape:connector-curvature="0" />
          </g>
          <g
             id="g76"
             transform="translate(24,7)"
             style="stroke:#000000;stroke-opacity:1;stroke-width:0.18156028;stroke-dasharray:none">
            <path
               d="m 0,0 c 0,-0.553 -0.447,-1 -1,-1 -0.553,0 -1,0.447 -1,1 0,0.553 0.447,1 1,1 0.553,0 1,-0.447 1,-1"
               style="fill:#ffffff;fill-opacity:0;fill-rule:nonzero;stroke:#000000;stroke-opacity:1;stroke-width:0.18156028;stroke-dasharray:none"
               id="path1"
               inkscape:connector-curvature="0" />
          </g>
        </g>
      </g>
    </g>
    <g
       id="g196"
       transform="matrix(0.03457457,-0.00700861,-0.00700861,-0.03457457,51.072666,117.72386)"
       style="stroke:none">
      <path
         id="path186"
         d="M 0,640 V 480 h 80 80 v -80 -80 h 80 80 v -80 -80 h 80 80 V 80 0 h 560 560 v 80 80 h 80 80 v 80 80 h 80 80 v 160 160 h 160 160 V 480 320 h 80 80 v -80 -80 h 80 80 V 80 0 h 480 480 v 80 80 h 80 80 v 80 80 h 80 80 v 80 80 h 80 80 V 640 800 H 2000 0 Z m 480,-80 v -80 h 80 80 v 80 80 h 80 80 v -80 -80 h 80 80 v -80 -80 h 80 80 v -80 -80 h -80 -80 v 80 80 h -80 -80 v -80 -80 h -80 -80 v 80 80 h -80 -80 v 80 80 h -80 -80 v 80 80 h 80 80 z m 2080,0 v -80 h 80 80 v 80 80 h 80 80 v -80 -80 h 80 80 v -80 -80 h 80 80 v -80 -80 h -80 -80 v 80 80 h -80 -80 v -80 -80 h -80 -80 v 80 80 h -80 -80 v 80 80 h -80 -80 v 80 80 h 80 80 z"
         inkscape:connector-curvature="0"
         style="fill:#000000" />
      <path
         id="path188"
         d="m 320,560 v -80 h 80 80 v -80 -80 h 80 80 v -80 -80 h 80 80 v 80 80 h 80 80 v -80 -80 h 80 80 v 80 80 h -80 -80 v 80 80 h -80 -80 v 80 80 h -80 -80 v -80 -80 h -80 -80 v 80 80 h -80 -80 z"
         inkscape:connector-curvature="0"
         style="fill:#ffffff;fill-opacity:0" />
      <path
         id="path190"
         d="m 2400,560 v -80 h 80 80 v -80 -80 h 80 80 v -80 -80 h 80 80 v 80 80 h 80 80 v -80 -80 h 80 80 v 80 80 h -80 -80 v 80 80 h -80 -80 v 80 80 h -80 -80 v -80 -80 h -80 -80 v 80 80 h -80 -80 z"
         inkscape:connector-curvature="0"
         style="fill:#ffffff;fill-opacity:0" />
      <path
         id="path192"
         d="m 640,400 v -80 h 80 80 v 80 80 h -80 -80 z"
         inkscape:connector-curvature="0"
         style="fill:#000000" />
      <path
         id="path194"
         d="m 2720,400 v -80 h 80 80 v 80 80 h -80 -80 z"
         inkscape:connector-curvature="0"
         style="fill:#000000" />
    </g>
  </g>
</svg>
