<?xml version="1.0" standalone="no"?>
<!DOCTYPE svg PUBLIC "-//W3C//DTD SVG 20010904//EN"
 "http://www.w3.org/TR/2001/REC-SVG-20010904/DTD/svg10.dtd">
<svg version="1.0" xmlns="http://www.w3.org/2000/svg"
 width="400.000000pt" height="80.000000pt" viewBox="0 0 400.000000 80.000000"
 preserveAspectRatio="xMidYMid meet">
<g transform="translate(0.000000,80.000000) scale(0.100000,-0.100000)" stroke="none">
<path fill="#000000" d="M0 640 l0 -160 80 0 80 0 0 -80 0 -80 80 0 80 0 0 -80 0 -80 80 0 80
0 0 -80 0 -80 560 0 560 0 0 80 0 80 80 0 80 0 0 80 0 80 80 0 80 0 0 160 0
160 160 0 160 0 0 -160 0 -160 80 0 80 0 0 -80 0 -80 80 0 80 0 0 -80 0 -80
480 0 480 0 0 80 0 80 80 0 80 0 0 80 0 80 80 0 80 0 0 80 0 80 80 0 80 0 0
160 0 160 -2000 0 -2000 0 0 -160z m480 -80 l0 -80 80 0 80 0 0 80 0 80 80 0
80 0 0 -80 0 -80 80 0 80 0 0 -80 0 -80 80 0 80 0 0 -80 0 -80 -80 0 -80 0 0
80 0 80 -80 0 -80 0 0 -80 0 -80 -80 0 -80 0 0 80 0 80 -80 0 -80 0 0 80 0 80
-80 0 -80 0 0 80 0 80 80 0 80 0 0 -80z m2080 0 l0 -80 80 0 80 0 0 80 0 80
80 0 80 0 0 -80 0 -80 80 0 80 0 0 -80 0 -80 80 0 80 0 0 -80 0 -80 -80 0 -80
0 0 80 0 80 -80 0 -80 0 0 -80 0 -80 -80 0 -80 0 0 80 0 80 -80 0 -80 0 0 80
0 80 -80 0 -80 0 0 80 0 80 80 0 80 0 0 -80z"/>
<path fill="#ffffff" d="M320 560 l0 -80 80 0 80 0 0 -80 0 -80 80 0 80 0 0 -80 0 -80 80 0
80 0 0 80 0 80 80 0 80 0 0 -80 0 -80 80 0 80 0 0 80 0 80 -80 0 -80 0 0 80 0
80 -80 0 -80 0 0 80 0 80 -80 0 -80 0 0 -80 0 -80 -80 0 -80 0 0 80 0 80 -80
0 -80 0 0 -80z"/>
<path fill="#ffffff" d="M2400 560 l0 -80 80 0 80 0 0 -80 0 -80 80 0 80 0 0 -80 0 -80 80 0
80 0 0 80 0 80 80 0 80 0 0 -80 0 -80 80 0 80 0 0 80 0 80 -80 0 -80 0 0 80 0
80 -80 0 -80 0 0 80 0 80 -80 0 -80 0 0 -80 0 -80 -80 0 -80 0 0 80 0 80 -80
0 -80 0 0 -80z"/> 
<path fill="#000000" d="M640 400 l0 -80 80 0 80 0 0 80 0 80 -80 0 -80 0 0 -80z"/>
<path fill="#000000" d="M2720 400 l0 -80 80 0 80 0 0 80 0 80 -80 0 -80 0 0 -80z"/>
</g>
</svg>
